<svg xmlns="http://www.w3.org/2000/svg" viewBox="0 0 31 31"><defs><style>.cls-1{fill:#fff;}</style></defs><title>Asset 2</title><g id="Layer_2" data-name="Layer 2"><g id="Layer_1-2" data-name="Layer 1"><path class="cls-1" d="M15.5,0A15.5,15.5,0,1,0,31,15.5,15.47,15.47,0,0,0,15.5,0ZM25.74,7.12a12.88,12.88,0,0,1,3,8.25,31.62,31.62,0,0,0-9.25-.4c-.07-.2-.2-.47-.26-.67-.27-.66-.6-1.26-.87-1.93A18.65,18.65,0,0,0,25.74,7.12ZM15.5,2.26a13.11,13.11,0,0,1,8.71,3.33c-.06.06-1.92,2.93-6.91,4.79a66.65,66.65,0,0,0-4.93-7.72A12.1,12.1,0,0,1,15.5,2.26ZM9.85,3.53c.2.26,2.59,3.59,4.92,7.65A50.16,50.16,0,0,1,2.53,12.77,13.28,13.28,0,0,1,9.85,3.53Zm-7.59,12v-.4a50.26,50.26,0,0,0,13.57-1.86c.4.73.73,1.53,1.07,2.26a1.52,1.52,0,0,1-.54.13C9.25,17.89,5.65,24.35,5.65,24.35A13.13,13.13,0,0,1,2.26,15.5ZM15.5,28.74a13.34,13.34,0,0,1-8.12-2.8,1.33,1.33,0,0,1-.33-.26,2.18,2.18,0,0,0,.33.2c.07-.14,2.6-5.52,10.38-8.25h.07a58,58,0,0,1,2.86,10A13.57,13.57,0,0,1,15.5,28.74Zm7.38-2.26A58.63,58.63,0,0,0,20.29,17a18.59,18.59,0,0,1,8.25.6A13.16,13.16,0,0,1,22.88,26.48Z"/></g></g></svg>