<svg xmlns="http://www.w3.org/2000/svg" xmlns:xlink="http://www.w3.org/1999/xlink" viewBox="0 0 32.7 31.81"><defs><style>.cls-1{fill:none;}.cls-2{clip-path:url(#clip-path);}.cls-3{fill:#fff;fill-rule:evenodd;}</style><clipPath id="clip-path"><rect class="cls-1" width="32.6" height="31.8"/></clipPath></defs><title>Asset 3</title><g id="Layer_2" data-name="Layer 2"><g id="Layer_1-2" data-name="Layer 1"><g class="cls-2"><path class="cls-3" d="M16.3,0a16.33,16.33,0,0,0-5.2,31.8c.8.1,1.1-.4,1.1-.8V28.2C7.7,29.2,6.7,26,6.7,26a4.13,4.13,0,0,0-1.8-2.4c-1.5-1,.1-1,.1-1a3.48,3.48,0,0,1,2.5,1.7,3.46,3.46,0,0,0,4.7,1.4,3.48,3.48,0,0,1,1-2.2c-3.6-.4-7.4-1.8-7.4-8.1A6.2,6.2,0,0,1,7.5,11a5.92,5.92,0,0,1,.2-4.2s1.4-.4,4.5,1.7A14,14,0,0,1,16.3,8a18.41,18.41,0,0,1,4.1.5c3.1-2.1,4.5-1.7,4.5-1.7a6.26,6.26,0,0,1,.2,4.3,6.47,6.47,0,0,1,1.7,4.4c0,6.3-3.8,7.6-7.4,8a3.82,3.82,0,0,1,1.1,3V31c0,.4.3.9,1.1.8A16.33,16.33,0,0,0,16.3,0Z"/></g></g></g></svg>