<svg xmlns="http://www.w3.org/2000/svg" viewBox="0 0 19 19"><defs><style>.cls-1{fill:#fff;}</style></defs><title>Asset 4</title><g id="Layer_2" data-name="Layer 2"><g id="Layer_1-2" data-name="Layer 1"><path class="cls-1" d="M4.22,2.11A2,2,0,0,1,2.11,4.22,2,2,0,0,1,0,2.22,2.13,2.13,0,0,1,2.11,0,2,2,0,0,1,4.22,2.11Z"/><path class="cls-1" d="M4.22,5.28H0V19H4.22Z"/><path class="cls-1" d="M14.33,5.5a4.59,4.59,0,0,0-4,2.11h-.11L10,5.78H6.22c0,1.16.11,2.55.11,4.11v9.05h4.23V11.5a3.17,3.17,0,0,1,.11-1.06c.33-.72.83-1.66,2-1.66,1.5,0,2.11,1.28,2.11,2.94V19H19V11.22C19,7.28,17,5.5,14.33,5.5Z"/></g></g></svg>