<svg xmlns="http://www.w3.org/2000/svg" xmlns:xlink="http://www.w3.org/1999/xlink" viewBox="0 0 21.98 27.11"><defs><style>.cls-1{fill:none;}.cls-2{clip-path:url(#clip-path);}.cls-3{fill:#fff;}</style><clipPath id="clip-path" transform="translate(-0.02)"><rect class="cls-1" y="0.05" width="22" height="27"/></clipPath></defs><title>Asset 5</title><g id="Layer_2" data-name="Layer 2"><g id="Layer_1-2" data-name="Layer 1"><g class="cls-2"><path class="cls-3" d="M21.87,8.45c-.5-3.74-2.72-6.23-6.27-7.66A12.55,12.55,0,0,0,7.35.61a10.11,10.11,0,0,0-5,3.17A9.39,9.39,0,0,0,.06,9.32a8.76,8.76,0,0,0,1.65,6.09,4.48,4.48,0,0,0,1.65,1.43c.44.25.57.19.7-.31s.19-.87.31-1.3a1.13,1.13,0,0,0-.19-1.18,4.37,4.37,0,0,1-.31-.5,7.1,7.1,0,0,1,2-8.9,8.06,8.06,0,0,1,8.24-1.06A5.83,5.83,0,0,1,17.88,8a9.58,9.58,0,0,1-1,7.21,4.86,4.86,0,0,1-4,2.62A2.69,2.69,0,0,1,10,15.72a3.58,3.58,0,0,1,.12-1.43c.38-1.18.7-2.36,1.08-3.54a5.3,5.3,0,0,0,.26-2,2.1,2.1,0,0,0-2.67-2,3.14,3.14,0,0,0-2,1.74,6,6,0,0,0-.12,4.54,2.43,2.43,0,0,1,.06.62c-.51,2.12-1,4.23-1.52,6.29a15.3,15.3,0,0,0-.51,6.09c.07.31.26.87.26.87l.88.19a3.48,3.48,0,0,1,.26-.5,21.67,21.67,0,0,0,2.22-5.16c.19-.87.44-1.74.69-2.61,0-.07,0-.25.13-.25s.13.12.19.18a2.93,2.93,0,0,0,.95.87,5.35,5.35,0,0,0,3.23.81,8,8,0,0,0,5.2-2.24A11.1,11.1,0,0,0,21.87,8.45Z" transform="translate(-0.02)"/></g></g></g></svg>