<svg xmlns="http://www.w3.org/2000/svg" xmlns:xlink="http://www.w3.org/1999/xlink" viewBox="0 0 30 24.03"><defs><style>.cls-1{fill:none;}.cls-2{clip-path:url(#clip-path);}.cls-3{fill:#fff;}</style><clipPath id="clip-path"><rect class="cls-1" y="0.02" width="30" height="24"/></clipPath></defs><title>Asset 6</title><g id="Layer_2" data-name="Layer 2"><g id="Layer_1-2" data-name="Layer 1"><g class="cls-2"><path class="cls-3" d="M0,21.22A13.17,13.17,0,0,0,8.87,18.9c-.58-.14-1.08-.21-1.51-.35a6,6,0,0,1-3.83-3.37c-.21-.49-.21-.56.36-.56a6,6,0,0,0,1.88-.14A6.33,6.33,0,0,1,3.1,13.07,5.66,5.66,0,0,1,1.15,9.14c-.07-.63,0-.7.58-.42a5.25,5.25,0,0,0,1.88.35A9.94,9.94,0,0,1,2.38,7.74a5.71,5.71,0,0,1-.65-6c.22-.57.36-.57.79-.14A17.91,17.91,0,0,0,10,6.48a19.08,19.08,0,0,0,4,.84c.72.07.79,0,.65-.7A6,6,0,0,1,18,.65a6.36,6.36,0,0,1,6.92.85A1.18,1.18,0,0,0,26,1.78,12.34,12.34,0,0,0,28.77.72c.15-.07.29-.21.51-.14A6.2,6.2,0,0,1,27,3.67a16,16,0,0,0,3-.77c0,.35-.22.49-.29.7a11.85,11.85,0,0,1-2.09,2,1.16,1.16,0,0,0-.5,1.05,16.67,16.67,0,0,1-3.68,10.74,16.46,16.46,0,0,1-11.61,6.45A18.22,18.22,0,0,1,.65,21.71c-.15-.07-.22-.14-.36-.21S.14,21.36,0,21.22Z"/></g></g></g></svg>